<?xml version="1.0" encoding="UTF-8"?>
<svg id="cube" xmlns="http://www.w3.org/2000/svg" viewBox="0 0 1080 1080">
  <defs>
    <style>
      .cls-1 {
        fill: #f5f5f5;
        stroke-width: 0px;
      }
    </style>
  </defs>
  <g>
    <g>
      <path class="cls-1" d="m440.51,1052.76h-.06c-.8,0-1.59-.2-2.31-.62L61.35,834.92c-1.44-.82-2.3-2.35-2.3-3.98l.28-434.95c0-1.66.89-3.17,2.31-3.99,1.42-.82,3.17-.82,4.61,0l376.39,217.48c1.44.81,2.3,2.34,2.3,3.98l.13,433.95c.04.25.06.49.06.76,0,2.54-2.06,4.61-4.61,4.61Zm-372.25-224.5l367.59,211.92-.11-424.08L68.53,403.95l-.26,424.31Z"/>
      <path class="cls-1" d="m353.5,902.32h-.02c-.81,0-1.59-.21-2.31-.61l-202.9-116.97c-1.44-.83-2.31-2.35-2.31-3.99l.13-234.21c.02-1.64.89-3.16,2.3-3.99,1.44-.81,3.19-.81,4.61,0l202.69,117.11c1.42.82,2.3,2.34,2.3,3.98l.08,233.33c.04.25.06.49.06.74,0,2.55-2.06,4.61-4.65,4.61Zm-198.33-124.24l193.7,111.67-.08-223.45-193.48-111.79-.15,223.57Z"/>
      <g>
        <path class="cls-1" d="m411.54,1033.43c-.55,0-1.08-.27-1.36-.77-.4-.75-.13-1.68.61-2.1l29.9-16.59c.74-.41,1.68-.15,2.08.6.42.74.15,1.68-.59,2.09l-29.9,16.58c-.25.14-.49.19-.74.19Z"/>
        <path class="cls-1" d="m393.06,1022.79c-.53,0-1.04-.26-1.32-.76-.44-.73-.19-1.67.55-2.09l46.09-26.64c.74-.42,1.66-.17,2.1.56.42.74.17,1.67-.57,2.1l-46.09,26.64c-.23.13-.49.2-.75.2Z"/>
        <path class="cls-1" d="m373.98,1011.8c-.53,0-1.06-.27-1.32-.77-.44-.74-.17-1.68.55-2.1l66.49-38.17c.74-.43,1.66-.17,2.1.58.42.74.17,1.66-.57,2.09l-66.49,38.17c-.23.13-.49.2-.76.2Z"/>
        <path class="cls-1" d="m354.66,1001.45c-.53,0-1.06-.28-1.34-.76-.42-.75-.17-1.67.57-2.11l84.5-48.82c.74-.43,1.66-.16,2.1.56.42.73.17,1.67-.57,2.09l-84.5,48.83c-.23.13-.51.21-.76.21Z"/>
        <path class="cls-1" d="m336.47,990.18c-.53,0-1.04-.28-1.32-.77-.43-.74-.19-1.66.57-2.1l102.95-59.51c.74-.44,1.68-.18,2.1.56.43.74.17,1.67-.57,2.1l-102.95,59.51c-.25.15-.51.22-.77.22Z"/>
        <path class="cls-1" d="m315.95,980.27c-.53,0-1.04-.27-1.32-.77-.42-.73-.17-1.67.55-2.09l124.53-71.94c.72-.44,1.66-.18,2.1.55.42.75.17,1.68-.57,2.11l-124.51,71.94c-.25.14-.51.2-.78.2Z"/>
        <path class="cls-1" d="m298.35,968.69c-.53,0-1.06-.28-1.34-.79-.41-.73-.17-1.66.57-2.08l142.02-82.06c.72-.43,1.66-.17,2.1.55.42.74.17,1.68-.57,2.1l-142.02,82.05c-.23.15-.51.22-.75.22Z"/>
        <path class="cls-1" d="m279.95,957.59c-.53,0-1.04-.28-1.32-.76-.44-.75-.17-1.67.55-2.11l160.42-92.71c.72-.44,1.66-.18,2.1.55.42.74.17,1.68-.57,2.09l-160.4,92.73c-.24.13-.51.21-.77.21Z"/>
        <path class="cls-1" d="m261.05,946.69c-.55,0-1.06-.28-1.34-.77-.43-.74-.17-1.67.57-2.11l178.1-102.9c.74-.44,1.66-.17,2.1.56.42.75.17,1.67-.57,2.11l-178.1,102.9c-.25.14-.49.2-.76.2Z"/>
        <path class="cls-1" d="m242.37,935.92c-.53,0-1.06-.27-1.34-.76-.42-.73-.17-1.67.57-2.11l87.18-50.46c.74-.44,1.66-.17,2.1.56.42.73.17,1.67-.55,2.11l-87.2,50.46c-.23.13-.51.21-.76.21Z"/>
        <path class="cls-1" d="m354.64,870.94c-.53,0-1.04-.28-1.32-.76-.44-.75-.19-1.67.55-2.11l83.02-48.04c.74-.44,1.66-.19,2.1.56.42.74.17,1.66-.57,2.09l-83.02,48.06c-.23.14-.49.21-.76.21Z"/>
        <path class="cls-1" d="m223.33,924.95c-.53,0-1.04-.27-1.32-.76-.44-.75-.19-1.67.55-2.11l87.27-50.42c.74-.43,1.68-.17,2.1.57.44.74.17,1.68-.55,2.09l-87.29,50.43c-.23.14-.49.21-.75.21Z"/>
        <path class="cls-1" d="m353.62,849.67c-.53,0-1.06-.27-1.32-.76-.43-.73-.17-1.67.55-2.1l85.53-49.42c.74-.43,1.66-.18,2.1.57.42.73.17,1.67-.57,2.09l-85.53,49.42c-.23.13-.49.21-.76.21Z"/>
        <path class="cls-1" d="m204.48,914.07c-.53,0-1.06-.26-1.34-.75-.42-.74-.17-1.68.57-2.1l85.18-49.21c.74-.44,1.66-.18,2.1.55.42.74.17,1.68-.57,2.09l-85.18,49.22c-.23.14-.51.2-.76.2Z"/>
        <path class="cls-1" d="m353.47,828c-.55,0-1.06-.28-1.34-.77-.42-.74-.17-1.67.55-2.1l86.27-49.83c.72-.43,1.66-.18,2.1.57.42.73.17,1.67-.57,2.09l-86.25,49.84c-.25.14-.51.21-.76.21Z"/>
        <path class="cls-1" d="m185.61,903.2c-.53,0-1.04-.27-1.32-.77-.44-.73-.17-1.66.55-2.09l87.27-50.43c.74-.43,1.68-.17,2.1.57.44.73.17,1.67-.55,2.08l-87.27,50.44c-.25.13-.51.21-.77.21Z"/>
        <path class="cls-1" d="m353.88,805.98c-.53,0-1.04-.28-1.34-.77-.41-.74-.17-1.67.57-2.1l85.84-49.59c.72-.43,1.66-.18,2.1.57.42.73.17,1.67-.57,2.09l-85.82,49.59c-.25.15-.51.22-.77.22Z"/>
        <path class="cls-1" d="m166.75,892.34c-.53,0-1.04-.28-1.34-.77-.42-.74-.15-1.67.57-2.1l87.27-50.42c.74-.44,1.66-.18,2.1.55.44.74.17,1.68-.57,2.11l-87.25,50.42c-.25.14-.51.22-.78.22Z"/>
        <path class="cls-1" d="m353.67,784.34c-.53,0-1.06-.28-1.32-.77-.44-.73-.19-1.66.55-2.09l85.48-49.39c.74-.43,1.66-.17,2.1.56.42.74.17,1.68-.57,2.1l-85.48,49.38c-.23.15-.49.22-.76.22Z"/>
        <path class="cls-1" d="m147.88,881.46c-.53,0-1.04-.27-1.32-.77-.42-.73-.17-1.66.57-2.09l87.27-50.43c.72-.44,1.66-.17,2.1.57.44.74.17,1.66-.57,2.1l-87.27,50.42c-.25.15-.49.21-.77.21Z"/>
        <path class="cls-1" d="m353.45,762.71c-.53,0-1.04-.28-1.34-.76-.42-.75-.17-1.68.57-2.11l86.27-49.84c.72-.43,1.66-.19,2.1.56.42.73.17,1.68-.57,2.09l-86.27,49.87c-.23.13-.49.2-.76.2Z"/>
        <path class="cls-1" d="m129.2,870.69c-.53,0-1.04-.28-1.32-.77-.44-.74-.17-1.66.57-2.1l87.2-50.44c.74-.44,1.68-.18,2.1.57.44.73.19,1.66-.55,2.09l-87.22,50.44c-.25.15-.51.22-.78.22Z"/>
        <path class="cls-1" d="m354.39,740.45c-.55,0-1.04-.28-1.34-.77-.44-.74-.17-1.68.57-2.11l85.16-49.25c.74-.43,1.68-.18,2.1.56.42.73.17,1.67-.57,2.09l-85.16,49.27c-.25.13-.49.21-.76.21Z"/>
        <path class="cls-1" d="m109.61,860.04c-.53,0-1.06-.27-1.34-.76-.42-.74-.15-1.68.57-2.1l87.84-50.76c.74-.43,1.68-.16,2.1.57.44.73.17,1.67-.57,2.09l-87.82,50.76c-.25.14-.51.2-.78.2Z"/>
        <path class="cls-1" d="m354.37,718.63c-.53,0-1.04-.28-1.32-.76-.44-.74-.17-1.67.57-2.11l85.33-49.3c.72-.43,1.66-.17,2.1.57.42.73.17,1.67-.57,2.09l-85.33,49.31c-.25.14-.51.21-.77.21Z"/>
        <path class="cls-1" d="m91.33,848.85c-.53,0-1.06-.27-1.34-.77-.42-.75-.17-1.68.57-2.1l87.27-50.43c.74-.43,1.68-.17,2.1.56.42.74.17,1.68-.57,2.1l-87.27,50.44c-.25.13-.49.2-.76.2Z"/>
        <path class="cls-1" d="m353.88,697.13c-.53,0-1.04-.26-1.32-.76-.43-.74-.17-1.68.57-2.09l85.69-49.52c.74-.44,1.66-.17,2.1.56.44.73.17,1.67-.57,2.1l-85.69,49.52c-.25.14-.51.19-.77.19Z"/>
        <path class="cls-1" d="m70.07,839.35c-.53,0-1.06-.26-1.32-.75-.43-.76-.17-1.68.55-2.11l89.67-51.81c.72-.43,1.66-.17,2.08.57.44.74.19,1.67-.55,2.1l-89.67,51.8c-.23.14-.49.21-.76.21Z"/>
        <path class="cls-1" d="m353.6,675.54c-.53,0-1.06-.27-1.34-.77-.42-.73-.17-1.67.57-2.09l85.84-49.6c.74-.44,1.68-.18,2.1.56.43.74.17,1.66-.57,2.1l-85.82,49.59c-.25.15-.51.21-.78.21Z"/>
        <path class="cls-1" d="m62.75,821.82c-.53,0-1.04-.27-1.32-.77-.43-.74-.17-1.68.57-2.1l88.22-50.96c.74-.43,1.66-.18,2.1.57.42.73.17,1.66-.57,2.09l-88.22,50.97c-.25.13-.51.2-.77.2Z"/>
        <path class="cls-1" d="m345.23,658.6c-.53,0-1.04-.27-1.32-.77-.42-.74-.17-1.67.56-2.1l87.43-50.51c.74-.43,1.68-.17,2.1.55.43.75.17,1.68-.57,2.11l-87.43,50.51c-.24.14-.49.21-.77.21Z"/>
        <path class="cls-1" d="m63.18,799.81c-.55,0-1.04-.27-1.34-.77-.42-.73-.17-1.66.57-2.09l86.95-50.25c.74-.44,1.68-.17,2.1.56.44.75.19,1.67-.57,2.11l-86.95,50.23c-.25.15-.49.22-.75.22Z"/>
        <path class="cls-1" d="m324.79,648.64c-.53,0-1.04-.27-1.32-.76-.44-.74-.17-1.68.57-2.1l86.52-49.99c.72-.42,1.66-.18,2.1.57.41.73.15,1.67-.57,2.09l-86.52,49.99c-.25.14-.51.2-.77.2Z"/>
        <path class="cls-1" d="m62.75,778.31c-.53,0-1.04-.27-1.32-.77-.43-.74-.17-1.68.57-2.09l87.84-50.67c.74-.43,1.68-.17,2.12.57.42.73.17,1.66-.57,2.09l-87.86,50.67c-.25.14-.51.2-.77.2Z"/>
        <path class="cls-1" d="m306.22,637.91c-.53,0-1.04-.28-1.34-.78-.42-.74-.17-1.66.57-2.1l86.56-49.91c.74-.44,1.68-.17,2.1.56.42.73.17,1.66-.55,2.1l-86.57,49.92c-.25.13-.49.21-.76.21Z"/>
        <path class="cls-1" d="m63.18,756.28c-.55,0-1.04-.28-1.34-.76-.42-.75-.17-1.67.57-2.11l88.84-51.32c.74-.42,1.68-.18,2.1.56.42.74.17,1.66-.57,2.1l-88.84,51.33c-.25.13-.49.21-.75.21Z"/>
        <path class="cls-1" d="m287.12,626.88c-.53,0-1.04-.27-1.32-.77-.43-.75-.17-1.67.57-2.11l86.5-49.98c.74-.42,1.68-.17,2.1.57.44.74.19,1.68-.57,2.1l-86.5,49.98c-.25.13-.49.21-.77.21Z"/>
        <path class="cls-1" d="m62.82,734.5c-.53,0-1.04-.27-1.32-.76-.43-.74-.19-1.68.55-2.1l88.18-50.87c.72-.44,1.66-.19,2.08.57.43.72.17,1.66-.55,2.08l-88.18,50.89c-.23.13-.49.2-.76.2Z"/>
        <path class="cls-1" d="m268.25,615.96c-.53,0-1.06-.28-1.34-.76-.42-.75-.17-1.67.57-2.11l85.37-49.25c.72-.44,1.66-.18,2.08.55.43.75.17,1.68-.55,2.11l-85.37,49.25c-.23.15-.49.22-.76.22Z"/>
        <path class="cls-1" d="m62.69,712.86c-.53,0-1.06-.27-1.32-.78-.44-.73-.19-1.66.55-2.09l87.88-50.72c.74-.44,1.68-.19,2.1.56.44.73.17,1.66-.55,2.09l-87.9,50.72c-.23.15-.51.22-.75.22Z"/>
        <path class="cls-1" d="m249.42,605.08c-.53,0-1.06-.27-1.34-.77-.41-.73-.17-1.67.57-2.09l86.56-49.96c.74-.43,1.68-.17,2.1.57.41.73.17,1.67-.57,2.1l-86.56,49.95c-.23.14-.49.21-.75.21Z"/>
        <path class="cls-1" d="m63.18,690.97c-.55,0-1.04-.27-1.34-.77-.42-.73-.17-1.66.57-2.1l89.45-51.67c.74-.44,1.68-.18,2.1.56.44.74.17,1.66-.55,2.1l-89.46,51.68c-.25.13-.49.21-.75.21Z"/>
        <path class="cls-1" d="m232.53,593.12c-.53,0-1.06-.28-1.32-.77-.44-.73-.19-1.66.55-2.1l84.51-48.81c.74-.44,1.66-.19,2.1.55.42.74.17,1.67-.57,2.1l-84.51,48.83c-.23.14-.51.21-.76.21Z"/>
        <path class="cls-1" d="m63.18,669.19c-.55,0-1.04-.27-1.34-.76-.42-.74-.17-1.68.57-2.1l87.41-50.5c.74-.43,1.68-.18,2.11.56.42.74.15,1.68-.57,2.1l-87.42,50.5c-.25.14-.49.2-.75.2Z"/>
        <path class="cls-1" d="m211.79,583.33c-.53,0-1.06-.27-1.34-.77-.41-.73-.17-1.67.57-2.09l86.4-49.93c.74-.44,1.68-.18,2.1.57.44.74.17,1.66-.57,2.09l-86.4,49.93c-.23.14-.49.2-.75.2Z"/>
        <path class="cls-1" d="m62.69,647.71c-.53,0-1.06-.27-1.32-.76-.44-.73-.19-1.67.55-2.1l88.01-50.85c.74-.42,1.68-.17,2.1.56.44.74.17,1.68-.55,2.1l-88.03,50.84c-.23.14-.51.21-.75.21Z"/>
        <path class="cls-1" d="m192.92,572.46c-.53,0-1.04-.27-1.32-.77-.42-.73-.17-1.67.57-2.09l86.52-50c.74-.42,1.66-.17,2.1.56.43.74.17,1.68-.57,2.1l-86.52,50c-.25.13-.51.2-.77.2Z"/>
        <path class="cls-1" d="m63.63,625.39c-.53,0-1.04-.27-1.32-.77-.42-.74-.17-1.68.55-2.1l84.25-48.68c.76-.43,1.68-.17,2.12.56.42.74.17,1.68-.57,2.1l-84.25,48.68c-.25.13-.51.2-.77.2Z"/>
        <path class="cls-1" d="m174.1,561.57c-.53,0-1.04-.28-1.32-.78-.44-.74-.17-1.67.55-2.1l86.63-50.05c.74-.42,1.68-.18,2.1.57.42.73.17,1.67-.55,2.09l-86.65,50.06c-.23.13-.49.21-.76.21Z"/>
        <path class="cls-1" d="m63.63,603.53c-.53,0-1.04-.28-1.32-.75-.42-.74-.17-1.68.55-2.11l177.95-102.93c.75-.44,1.68-.18,2.11.56.42.73.17,1.66-.56,2.1l-177.95,102.93c-.25.14-.51.21-.77.21Z"/>
        <path class="cls-1" d="m63.63,581.85c-.53,0-1.04-.27-1.32-.76-.42-.73-.17-1.67.57-2.09l159.13-91.95c.74-.43,1.66-.18,2.1.56.44.74.17,1.67-.57,2.11l-159.13,91.94c-.25.14-.51.2-.77.2Z"/>
        <path class="cls-1" d="m63.63,560.1c-.53,0-1.04-.28-1.32-.77-.42-.74-.17-1.66.55-2.1l141.9-81.98c.74-.44,1.68-.18,2.1.56.42.74.17,1.67-.55,2.1l-141.91,81.98c-.25.14-.51.22-.77.22Z"/>
        <path class="cls-1" d="m63.63,538.33c-.53,0-1.04-.28-1.32-.78-.42-.72-.17-1.66.57-2.09l121.43-70.16c.74-.42,1.68-.17,2.1.56.43.74.19,1.68-.57,2.1l-121.43,70.16c-.25.15-.51.22-.77.22Z"/>
        <path class="cls-1" d="m63.63,516.56c-.53,0-1.04-.28-1.32-.77-.42-.73-.17-1.66.57-2.1l102.58-59.26c.74-.43,1.68-.19,2.11.57.42.72.15,1.65-.57,2.08l-102.59,59.28c-.25.14-.51.21-.77.21Z"/>
        <path class="cls-1" d="m63.03,495.55c-.53,0-1.04-.27-1.32-.76-.44-.74-.17-1.68.57-2.1l84.84-48.87c.76-.42,1.68-.17,2.12.58.42.73.17,1.67-.57,2.09l-84.86,48.86c-.25.14-.51.2-.78.2Z"/>
        <path class="cls-1" d="m63.63,473.02c-.53,0-1.04-.28-1.32-.76-.42-.75-.17-1.68.57-2.1l64.68-37.38c.74-.43,1.66-.17,2.12.57.41.73.17,1.67-.57,2.08l-64.7,37.39c-.25.14-.51.21-.77.21Z"/>
        <path class="cls-1" d="m64.5,450.76c-.53,0-1.06-.27-1.34-.77-.42-.75-.17-1.68.57-2.11l45.41-26.24c.74-.44,1.68-.17,2.1.56.44.74.19,1.67-.57,2.11l-45.41,26.24c-.25.13-.51.21-.76.21Z"/>
        <path class="cls-1" d="m63.63,429.48c-.53,0-1.04-.27-1.32-.77-.42-.74-.17-1.67.55-2.09l27.2-15.71c.72-.44,1.66-.18,2.1.56.42.73.17,1.67-.57,2.09l-27.18,15.72c-.25.14-.51.2-.77.2Z"/>
      </g>
      <path class="cls-1" d="m440.32,618.05c-.79,0-1.59-.21-2.3-.61L61.5,400.21c-1.42-.83-2.3-2.33-2.3-3.98-.02-1.63.85-3.15,2.25-3.99l83.78-49.46c1.42-.83,3.19-.83,4.65-.02l376.52,217.72c1.42.82,2.31,2.34,2.31,3.99s-.87,3.16-2.29,3.98l-83.76,48.98c-.72.42-1.51.62-2.32.62ZM72.93,396.17l367.38,211.95,74.62-43.62-367.34-212.41-74.65,44.08Z"/>
      <path class="cls-1" d="m440.32,1053c-.79,0-1.59-.2-2.28-.62-1.44-.81-2.31-2.34-2.31-3.98l.13-434.71c0-1.63.87-3.15,2.27-3.98l83.61-49.2c1.44-.85,3.19-.85,4.63-.04,1.44.82,2.32,2.35,2.32,4.01l.28,434.95c0,1.62-.87,3.15-2.28,3.98l-84.04,48.97c-.72.42-1.51.62-2.32.62Zm4.74-436.68l-.13,424.07,74.83-43.6-.28-424.26-74.41,43.79Z"/>
      <path class="cls-1" d="m150.58,785.34c-1.61,0-3.14-.82-4-2.3-1.27-2.19-.53-5.02,1.68-6.29l76.39-44.31c2.19-1.27,5.01-.53,6.29,1.67,1.27,2.2.53,5.03-1.68,6.29l-76.37,44.32c-.74.43-1.53.62-2.31.62Z"/>
    </g>
    <g>
      <g>
        <path class="cls-1" d="m353.3,734.98c-.77,0-1.57-.2-2.29-.61l-57.97-33.42c-1.44-.83-2.31-2.34-2.31-4l.04-66.77c0-2.54,2.08-4.65,4.61-4.6,2.55,0,4.61,2.06,4.61,4.6l-.06,64.11,55.67,32.08c2.21,1.27,2.97,4.1,1.68,6.3-.83,1.47-2.38,2.3-3.99,2.3Z"/>
        <path class="cls-1" d="m672.15,918.78c-.79,0-1.59-.2-2.3-.61l-147.16-84.83c-2.21-1.27-2.97-4.09-1.68-6.3,1.25-2.2,4.08-2.95,6.29-1.68l140.24,80.85-.13-424.07-367.19-212.17-.09,160.94c0,2.55-2.08,4.61-4.61,4.61h0c-2.55,0-4.61-2.06-4.61-4.61l.11-168.91c0-1.65.87-3.16,2.3-3.99,1.42-.82,3.17-.82,4.61,0l376.39,217.47c1.42.84,2.3,2.35,2.3,3.99l.13,434.71c0,1.64-.89,3.16-2.31,3.99-.72.41-1.51.61-2.3.61Z"/>
      </g>
      <path class="cls-1" d="m585.16,768.35c-.79,0-1.59-.2-2.3-.61l-60.05-34.63c-2.21-1.27-2.97-4.09-1.7-6.29,1.27-2.2,4.1-2.96,6.29-1.69l53.16,30.64-.06-223.43-193.47-111.79-.06,61.94c0,2.54-2.06,4.59-4.61,4.59h0c-2.53,0-4.59-2.06-4.59-4.61l.04-69.91c0-1.64.89-3.15,2.3-3.99,1.44-.81,3.19-.81,4.61,0l202.68,117.12c1.44.81,2.3,2.33,2.3,3.98l.08,234.08c0,1.64-.87,3.17-2.3,3.99-.72.4-1.51.61-2.31.61Z"/>
      <g>
        <path class="cls-1" d="m643.21,899.48c-.53,0-1.06-.3-1.34-.8-.42-.74-.13-1.67.6-2.09l29.9-16.59c.74-.42,1.66-.14,2.08.6.42.74.15,1.67-.6,2.08l-29.88,16.59c-.25.13-.51.21-.76.21Z"/>
        <path class="cls-1" d="m624.73,888.82c-.53,0-1.04-.27-1.32-.77-.42-.74-.17-1.67.57-2.1l46.09-26.63c.72-.43,1.66-.17,2.1.57.42.73.17,1.67-.57,2.1l-46.09,26.63c-.25.14-.51.2-.78.2Z"/>
        <path class="cls-1" d="m605.65,877.82c-.53,0-1.04-.27-1.32-.75-.43-.75-.17-1.68.57-2.1l66.48-38.18c.74-.41,1.68-.16,2.1.58.43.73.17,1.67-.57,2.1l-66.48,38.16c-.25.13-.51.2-.77.2Z"/>
        <path class="cls-1" d="m586.33,867.48c-.53,0-1.04-.28-1.32-.76-.43-.75-.19-1.68.55-2.11l84.52-48.82c.72-.43,1.66-.17,2.1.56.42.75.17,1.68-.57,2.11l-84.5,48.82c-.25.13-.51.21-.77.21Z"/>
        <path class="cls-1" d="m568.16,856.2c-.53,0-1.06-.28-1.34-.77-.42-.74-.17-1.67.57-2.1l102.97-59.52c.72-.43,1.66-.17,2.1.57.42.74.17,1.66-.57,2.1l-102.97,59.51c-.25.14-.51.22-.76.22Z"/>
        <path class="cls-1" d="m547.64,846.31c-.53,0-1.06-.28-1.34-.77-.41-.74-.17-1.66.57-2.1l124.51-71.95c.74-.42,1.68-.18,2.1.57.43.73.17,1.67-.57,2.09l-124.51,71.95c-.23.14-.49.22-.75.22Z"/>
        <path class="cls-1" d="m530.02,834.71c-.53,0-1.04-.28-1.32-.77-.44-.73-.17-1.66.57-2.09l142-82.05c.74-.43,1.68-.18,2.12.57.42.73.17,1.66-.57,2.09l-142.02,82.05c-.25.14-.51.21-.78.21Z"/>
        <path class="cls-1" d="m523.2,816.92c-.53,0-1.04-.27-1.32-.77-.43-.73-.17-1.67.55-2.1l148.84-86.04c.74-.44,1.68-.18,2.12.57.42.73.17,1.66-.57,2.09l-148.84,86.04c-.25.13-.51.2-.77.2Z"/>
        <path class="cls-1" d="m524.58,794.31c-.53,0-1.02-.26-1.32-.75-.41-.72-.19-1.66.55-2.11l54.65-32.45c.72-.43,1.66-.2,2.09.53.44.73.19,1.67-.53,2.11l-54.65,32.45c-.25.15-.53.22-.79.22Z"/>
        <path class="cls-1" d="m522.52,773.89c-.53,0-1.04-.27-1.32-.77-.44-.73-.19-1.67.55-2.1l38.71-22.4c.74-.44,1.68-.18,2.1.57.43.73.19,1.66-.55,2.1l-38.71,22.38c-.25.15-.51.22-.78.22Z"/>
        <path class="cls-1" d="m586.33,736.97c-.53,0-1.06-.28-1.34-.78-.41-.73-.17-1.67.55-2.1l83.02-48.05c.74-.42,1.68-.16,2.1.57.43.73.17,1.66-.55,2.09l-83.02,48.06c-.25.13-.51.21-.75.21Z"/>
        <path class="cls-1" d="m522.52,751.98c-.53,0-1.04-.28-1.32-.77-.44-.73-.19-1.67.55-2.09l19.78-11.43c.72-.43,1.66-.18,2.1.57.42.73.17,1.67-.57,2.09l-19.76,11.42c-.25.15-.51.22-.78.22Z"/>
        <path class="cls-1" d="m585.29,715.7c-.53,0-1.04-.28-1.32-.78-.44-.73-.17-1.67.57-2.09l85.54-49.42c.72-.43,1.66-.17,2.1.56.42.74.17,1.68-.57,2.1l-85.54,49.42c-.25.14-.51.21-.77.21Z"/>
        <path class="cls-1" d="m585.14,694.02c-.53,0-1.06-.27-1.34-.76-.42-.73-.17-1.67.57-2.1l86.25-49.83c.74-.43,1.68-.17,2.1.57.44.72.19,1.66-.55,2.08l-86.27,49.85c-.25.13-.49.2-.75.2Z"/>
        <path class="cls-1" d="m585.57,672.01c-.55,0-1.06-.27-1.34-.76-.44-.76-.17-1.68.57-2.11l85.82-49.59c.74-.42,1.68-.17,2.1.56.44.74.19,1.68-.55,2.1l-85.84,49.59c-.25.14-.51.21-.76.21Z"/>
        <path class="cls-1" d="m585.35,650.36c-.53,0-1.04-.27-1.32-.75-.43-.75-.17-1.68.57-2.11l85.48-49.39c.72-.43,1.66-.16,2.1.56.42.74.17,1.68-.57,2.1l-85.48,49.38c-.25.15-.51.21-.77.21Z"/>
        <path class="cls-1" d="m585.12,628.73c-.53,0-1.04-.27-1.32-.77-.43-.73-.17-1.67.57-2.1l86.25-49.85c.74-.43,1.68-.16,2.1.57.44.73.19,1.67-.55,2.1l-86.27,49.83c-.25.15-.51.21-.77.21Z"/>
        <path class="cls-1" d="m586.06,606.47c-.53,0-1.04-.27-1.32-.77-.43-.73-.17-1.67.55-2.09l85.18-49.27c.72-.43,1.66-.18,2.1.57.42.73.17,1.67-.57,2.09l-85.16,49.26c-.25.13-.51.2-.77.2Z"/>
        <path class="cls-1" d="m586.06,584.66c-.53,0-1.06-.28-1.34-.77-.42-.74-.17-1.66.57-2.1l85.33-49.3c.74-.44,1.68-.17,2.1.56.44.75.19,1.68-.55,2.11l-85.35,49.3c-.25.13-.49.21-.76.21Z"/>
        <path class="cls-1" d="m585.57,563.18c-.53,0-1.06-.28-1.34-.78-.42-.74-.17-1.66.57-2.09l85.69-49.51c.74-.44,1.68-.17,2.11.56.42.75.17,1.67-.57,2.11l-85.7,49.5c-.23.15-.49.22-.76.22Z"/>
        <path class="cls-1" d="m585.27,541.58c-.53,0-1.04-.28-1.32-.78-.43-.73-.17-1.66.57-2.09l85.84-49.6c.72-.44,1.66-.18,2.1.57.42.73.17,1.68-.57,2.09l-85.84,49.6c-.25.15-.51.22-.77.22Z"/>
        <path class="cls-1" d="m576.92,524.63c-.53,0-1.04-.27-1.32-.76-.44-.75-.19-1.68.55-2.1l87.44-50.51c.72-.43,1.66-.19,2.1.56.42.74.17,1.67-.57,2.09l-87.44,50.52c-.23.14-.49.21-.76.21Z"/>
        <path class="cls-1" d="m556.48,514.67c-.53,0-1.06-.27-1.32-.76-.43-.74-.19-1.68.55-2.1l86.52-50c.74-.42,1.68-.16,2.1.57.44.73.17,1.67-.57,2.09l-86.52,49.99c-.23.14-.51.2-.76.2Z"/>
        <path class="cls-1" d="m537.89,503.93c-.53,0-1.04-.27-1.32-.77-.43-.74-.17-1.67.55-2.09l86.56-49.91c.76-.44,1.68-.18,2.1.56.44.73.19,1.67-.55,2.1l-86.56,49.92c-.25.13-.51.2-.77.2Z"/>
        <path class="cls-1" d="m518.81,492.91c-.53,0-1.06-.27-1.34-.78-.42-.73-.17-1.67.57-2.09l86.52-49.99c.72-.43,1.66-.17,2.1.57.41.73.17,1.67-.57,2.09l-86.5,49.98c-.25.13-.51.21-.78.21Z"/>
        <path class="cls-1" d="m499.92,481.99c-.53,0-1.04-.27-1.32-.77-.43-.74-.17-1.66.57-2.1l85.35-49.25c.74-.44,1.66-.19,2.1.57.44.72.17,1.65-.57,2.08l-85.35,49.27c-.25.13-.51.21-.77.21Z"/>
        <path class="cls-1" d="m481.09,471.11c-.53,0-1.04-.28-1.32-.77-.44-.73-.17-1.66.57-2.1l86.54-49.95c.74-.44,1.68-.17,2.1.56.44.74.17,1.67-.57,2.1l-86.54,49.95c-.25.14-.51.21-.78.21Z"/>
        <path class="cls-1" d="m464.2,459.15c-.53,0-1.04-.28-1.32-.78-.43-.74-.17-1.66.57-2.1l84.5-48.82c.74-.43,1.68-.18,2.1.56.44.74.19,1.67-.55,2.1l-84.52,48.83c-.25.13-.51.21-.77.21Z"/>
        <path class="cls-1" d="m443.46,449.36c-.53,0-1.04-.27-1.32-.77-.44-.73-.17-1.67.57-2.09l86.4-49.93c.72-.44,1.66-.18,2.1.57.42.73.17,1.66-.57,2.09l-86.4,49.92c-.25.14-.51.21-.78.21Z"/>
        <path class="cls-1" d="m364.05,473.49c-.53,0-1.04-.28-1.32-.78-.44-.74-.17-1.67.57-2.1l18.32-10.58c.74-.44,1.66-.19,2.1.55.42.75.17,1.68-.57,2.1l-18.32,10.59c-.25.14-.49.22-.77.22Z"/>
        <path class="cls-1" d="m424.61,438.49c-.53,0-1.04-.27-1.34-.77-.42-.74-.17-1.68.57-2.1l86.54-50c.72-.43,1.66-.17,2.08.57.44.74.19,1.67-.55,2.11l-86.54,49.99c-.23.14-.49.2-.76.2Z"/>
        <path class="cls-1" d="m345.74,462.89c-.51,0-1.04-.27-1.3-.74-.45-.74-.21-1.68.53-2.11l33.83-20.16c.72-.44,1.66-.19,2.1.55.43.73.19,1.66-.55,2.1l-33.81,20.16c-.25.14-.53.21-.79.21Z"/>
        <path class="cls-1" d="m405.79,427.59c-.53,0-1.06-.27-1.32-.76-.44-.73-.19-1.67.55-2.1l86.63-50.05c.72-.43,1.66-.17,2.1.56.42.74.17,1.68-.57,2.1l-86.63,50.06c-.23.13-.51.2-.75.2Z"/>
        <path class="cls-1" d="m327.81,450.76c-.53,0-1.04-.28-1.32-.77-.42-.75-.17-1.68.55-2.11l145.46-84.13c.74-.43,1.68-.18,2.1.56.44.74.17,1.66-.55,2.1l-145.46,84.12c-.25.15-.51.23-.78.23Z"/>
        <path class="cls-1" d="m307.56,440.82c-.53,0-1.06-.27-1.32-.77-.44-.73-.19-1.67.55-2.09l146.89-84.87c.74-.44,1.68-.18,2.1.55.43.75.19,1.67-.55,2.11l-146.91,84.86c-.23.15-.51.22-.76.22Z"/>
        <path class="cls-1" d="m295.32,426.12c-.53,0-1.06-.28-1.34-.76-.42-.74-.17-1.68.57-2.1l141.9-81.98c.72-.44,1.66-.18,2.1.57.42.73.17,1.66-.57,2.09l-141.88,81.99c-.25.13-.51.2-.78.2Z"/>
        <path class="cls-1" d="m329.74,718.63c-.53,0-1.06-.28-1.34-.77-.42-.73-.17-1.68.57-2.1l24.14-13.95c.74-.43,1.66-.17,2.1.56.42.76.17,1.68-.57,2.11l-24.14,13.95c-.23.14-.51.21-.76.21Z"/>
        <path class="cls-1" d="m311.15,707.59c-.55,0-1.06-.28-1.34-.76-.44-.74-.17-1.67.57-2.11l42.73-24.67c.74-.44,1.66-.19,2.1.56.42.73.17,1.66-.57,2.09l-42.73,24.69c-.25.14-.51.21-.76.21Z"/>
        <path class="cls-1" d="m294.85,695.24c-.53,0-1.04-.27-1.32-.76-.44-.73-.17-1.67.57-2.11l56.63-32.72c.74-.43,1.68-.17,2.1.57.43.73.17,1.67-.57,2.09l-56.63,32.73c-.25.13-.51.21-.78.21Z"/>
        <path class="cls-1" d="m295.34,673.48c-.53,0-1.02-.26-1.32-.75-.43-.73-.17-1.66.55-2.1l35.97-21.07c.74-.43,1.68-.2,2.12.54.42.74.17,1.68-.55,2.1l-35.99,21.09c-.23.13-.49.2-.77.2Z"/>
        <path class="cls-1" d="m295.08,651.59c-.53,0-1.04-.28-1.32-.78-.44-.73-.19-1.66.57-2.09l18.72-10.83c.74-.43,1.68-.17,2.12.57.42.73.15,1.67-.57,2.1l-18.74,10.82c-.25.14-.51.22-.78.22Z"/>
        <path class="cls-1" d="m295.32,404.35c-.53,0-1.04-.28-1.34-.78-.42-.73-.17-1.66.57-2.09l121.45-70.17c.72-.43,1.66-.17,2.1.57.42.73.17,1.67-.57,2.1l-121.43,70.15c-.25.14-.51.21-.78.21Z"/>
        <path class="cls-1" d="m295.32,382.59c-.53,0-1.04-.28-1.34-.77-.42-.75-.17-1.67.57-2.11l102.59-59.27c.74-.43,1.68-.18,2.1.56.42.74.17,1.67-.55,2.1l-102.59,59.27c-.25.14-.51.22-.78.22Z"/>
        <path class="cls-1" d="m294.72,361.59c-.53,0-1.04-.28-1.32-.77-.43-.73-.17-1.67.57-2.09l84.84-48.86c.74-.43,1.68-.17,2.1.56.43.74.17,1.68-.57,2.1l-84.86,48.85c-.23.15-.49.22-.75.22Z"/>
        <path class="cls-1" d="m295.32,339.04c-.53,0-1.04-.27-1.34-.77-.42-.73-.17-1.67.57-2.11l64.7-37.36c.74-.44,1.66-.17,2.1.56.42.75.17,1.67-.57,2.11l-64.68,37.37c-.25.14-.51.2-.78.2Z"/>
        <path class="cls-1" d="m296.17,316.78c-.53,0-1.06-.27-1.32-.77-.43-.73-.17-1.67.55-2.09l45.43-26.25c.74-.43,1.66-.18,2.1.57.42.73.17,1.66-.57,2.1l-45.41,26.24c-.25.13-.51.2-.77.2Z"/>
        <path class="cls-1" d="m295.32,295.52c-.53,0-1.06-.28-1.34-.78-.42-.74-.17-1.68.57-2.1l27.18-15.71c.74-.42,1.68-.18,2.1.57.43.73.19,1.67-.57,2.09l-27.16,15.71c-.25.15-.51.22-.78.22Z"/>
      </g>
      <path class="cls-1" d="m672.02,484.08c-.8,0-1.59-.21-2.31-.62l-376.54-217.23c-1.42-.81-2.29-2.33-2.3-3.96,0-1.64.87-3.16,2.27-3.98l83.76-49.47c1.44-.84,3.21-.84,4.65,0l376.54,217.71c1.42.82,2.28,2.33,2.28,3.98.02,1.64-.85,3.16-2.27,4l-83.76,48.97c-.72.42-1.53.62-2.32.62Zm-367.4-221.89l367.38,211.96,74.62-43.63-367.34-212.4-74.66,44.07Z"/>
      <path class="cls-1" d="m672.02,919.02c-.8,0-1.59-.19-2.31-.61-1.42-.82-2.3-2.34-2.3-3.98l.13-434.72c0-1.63.87-3.14,2.27-3.98l83.63-49.2c1.42-.83,3.19-.85,4.63-.03,1.44.81,2.3,2.34,2.3,4l.3,434.95c0,1.63-.87,3.15-2.29,3.97l-84.06,48.97c-.7.42-1.51.61-2.3.61Zm4.74-436.67l-.13,424.06,74.83-43.59-.28-424.26-74.41,43.79Z"/>
      <g>
        <path class="cls-1" d="m466.47,535.52c-2.55,0-4.61-2.05-4.61-4.61v-68.8c0-2.54,2.06-4.6,4.61-4.6s4.61,2.06,4.61,4.6v68.8c0,2.56-2.08,4.61-4.61,4.61Z"/>
        <path class="cls-1" d="m584.99,671.64c-.79,0-1.59-.2-2.3-.61l-59.69-34.41c-2.21-1.27-2.97-4.09-1.68-6.3,1.27-2.2,4.08-2.96,6.29-1.68l59.69,34.4c2.19,1.28,2.95,4.1,1.68,6.3-.85,1.47-2.4,2.3-3.99,2.3Z"/>
      </g>
    </g>
    <g>
      <g>
        <path class="cls-1" d="m584.86,601.08c-.79,0-1.57-.2-2.3-.62l-57.98-33.42c-1.42-.83-2.3-2.34-2.3-4l.04-66.76c0-2.54,2.08-4.6,4.61-4.6h0c2.55,0,4.61,2.07,4.61,4.61l-.04,64.1,55.67,32.1c2.21,1.27,2.97,4.08,1.68,6.28-.85,1.48-2.4,2.31-3.99,2.31Z"/>
        <path class="cls-1" d="m903.71,784.89c-.79,0-1.59-.21-2.3-.6l-147.16-84.85c-2.21-1.27-2.97-4.08-1.7-6.28,1.27-2.21,4.1-2.97,6.29-1.7l140.26,80.85-.13-424.07-367.21-212.16-.09,160.93c0,2.55-2.06,4.61-4.61,4.61h0c-2.53,0-4.59-2.07-4.59-4.61l.09-168.91c0-1.64.89-3.16,2.3-3.98,1.44-.83,3.17-.83,4.61,0l376.39,217.47c1.44.83,2.32,2.34,2.32,3.99l.13,434.7c0,1.64-.89,3.16-2.31,4.01-.72.4-1.51.6-2.3.6Z"/>
      </g>
      <path class="cls-1" d="m816.71,634.45c-.79,0-1.59-.2-2.3-.62l-60.07-34.63c-2.19-1.27-2.95-4.08-1.68-6.28,1.27-2.21,4.08-2.97,6.29-1.7l53.16,30.65-.08-223.45-193.47-111.78-.04,61.94c0,2.54-2.06,4.6-4.61,4.6h0c-2.55,0-4.61-2.07-4.61-4.61l.06-69.9c0-1.66.89-3.17,2.3-4,1.42-.82,3.17-.82,4.61,0l202.68,117.11c1.42.81,2.3,2.33,2.3,3.99l.08,234.08c0,1.64-.89,3.16-2.3,3.98-.72.42-1.51.62-2.31.62Z"/>
      <g>
        <path class="cls-1" d="m874.77,765.59c-.55,0-1.06-.28-1.34-.8-.42-.74-.15-1.68.58-2.09l29.92-16.59c.74-.4,1.66-.14,2.08.61.42.74.13,1.68-.6,2.09l-29.9,16.59c-.23.11-.49.19-.74.19Z"/>
        <path class="cls-1" d="m856.29,754.93c-.53,0-1.04-.28-1.32-.77-.44-.75-.17-1.67.57-2.11l46.07-26.62c.74-.44,1.68-.18,2.1.57.44.73.17,1.67-.57,2.09l-46.07,26.63c-.25.14-.51.21-.78.21Z"/>
        <path class="cls-1" d="m837.21,743.94c-.53,0-1.04-.28-1.32-.77-.43-.74-.17-1.68.57-2.1l66.48-38.16c.74-.43,1.68-.17,2.1.56.41.73.17,1.67-.57,2.11l-66.49,38.16c-.23.13-.49.21-.76.21Z"/>
        <path class="cls-1" d="m817.89,733.58c-.53,0-1.06-.27-1.32-.77-.43-.73-.19-1.67.55-2.09l84.5-48.82c.74-.44,1.68-.18,2.1.57.44.73.17,1.66-.57,2.09l-84.5,48.82c-.23.15-.49.2-.75.2Z"/>
        <path class="cls-1" d="m799.7,722.31c-.53,0-1.04-.28-1.32-.78-.44-.73-.17-1.67.57-2.1l102.97-59.52c.72-.43,1.66-.16,2.1.57.42.74.17,1.68-.57,2.1l-102.97,59.52c-.25.13-.51.21-.77.21Z"/>
        <path class="cls-1" d="m779.2,712.41c-.53,0-1.06-.28-1.34-.76-.41-.75-.17-1.68.57-2.11l124.51-71.94c.74-.43,1.68-.17,2.1.56.41.73.17,1.67-.57,2.1l-124.51,71.94c-.25.13-.51.21-.75.21Z"/>
        <path class="cls-1" d="m761.57,700.81c-.53,0-1.06-.26-1.32-.75-.44-.74-.19-1.68.55-2.11l142.02-82.05c.74-.44,1.68-.17,2.1.57.44.73.17,1.67-.55,2.09l-142.02,82.06c-.25.13-.51.2-.78.2Z"/>
        <path class="cls-1" d="m754.75,683.04c-.53,0-1.04-.28-1.32-.78-.43-.73-.19-1.66.55-2.09l148.84-86.04c.74-.43,1.68-.18,2.1.57.44.73.17,1.67-.55,2.09l-148.84,86.04c-.24.14-.51.21-.77.21Z"/>
        <path class="cls-1" d="m756.13,660.43c-.53,0-1.04-.28-1.32-.77-.43-.74-.17-1.66.55-2.1l146.25-84.5c.74-.43,1.68-.18,2.1.57.44.74.17,1.68-.57,2.09l-146.23,84.51c-.25.14-.51.21-.77.21Z"/>
        <path class="cls-1" d="m754.08,640c-.53,0-1.06-.27-1.32-.77-.44-.73-.19-1.67.55-2.1l38.71-22.4c.74-.42,1.68-.18,2.1.57.42.73.17,1.66-.55,2.09l-38.71,22.41c-.25.13-.51.2-.77.2Z"/>
        <path class="cls-1" d="m817.87,603.08c-.53,0-1.04-.27-1.32-.78-.43-.73-.17-1.65.55-2.09l83.02-48.06c.74-.43,1.66-.16,2.1.56.43.74.17,1.68-.55,2.11l-83.02,48.05c-.25.13-.51.21-.77.21Z"/>
        <path class="cls-1" d="m754.08,618.08c-.53,0-1.06-.27-1.32-.77-.44-.74-.19-1.68.55-2.1l19.76-11.42c.74-.44,1.68-.18,2.1.55.44.75.19,1.67-.55,2.11l-19.78,11.43c-.23.13-.49.2-.75.2Z"/>
        <path class="cls-1" d="m816.85,581.8c-.53,0-1.04-.28-1.32-.76-.44-.75-.17-1.68.57-2.11l85.52-49.42c.74-.42,1.68-.17,2.1.56.44.74.17,1.68-.57,2.1l-85.52,49.42c-.25.14-.51.2-.77.2Z"/>
        <path class="cls-1" d="m816.7,560.13c-.55,0-1.06-.27-1.34-.77-.42-.73-.17-1.67.57-2.09l86.25-49.84c.74-.44,1.68-.17,2.1.56.44.74.17,1.67-.57,2.1l-86.25,49.83c-.25.14-.51.2-.75.2Z"/>
        <path class="cls-1" d="m817.11,538.11c-.53,0-1.04-.27-1.32-.77-.44-.73-.17-1.67.57-2.1l85.82-49.59c.74-.42,1.68-.16,2.1.57.44.74.17,1.68-.57,2.11l-85.82,49.59c-.25.13-.51.2-.78.2Z"/>
        <path class="cls-1" d="m816.9,516.46c-.53,0-1.04-.26-1.32-.75-.43-.74-.17-1.68.57-2.11l85.46-49.37c.74-.44,1.68-.19,2.1.55.44.74.17,1.68-.57,2.11l-85.46,49.38c-.25.14-.51.2-.77.2Z"/>
        <path class="cls-1" d="m816.68,494.83c-.53,0-1.04-.27-1.32-.77-.43-.73-.19-1.67.55-2.09l86.27-49.85c.74-.44,1.68-.17,2.1.56.44.74.17,1.67-.57,2.1l-86.25,49.84c-.25.15-.51.21-.77.21Z"/>
        <path class="cls-1" d="m817.62,472.58c-.53,0-1.06-.28-1.32-.77-.43-.74-.19-1.68.55-2.1l85.16-49.26c.74-.43,1.68-.17,2.1.57.44.73.19,1.67-.55,2.09l-85.16,49.26c-.24.15-.51.22-.77.22Z"/>
        <path class="cls-1" d="m817.6,450.76c-.51,0-1.04-.27-1.32-.77-.42-.74-.17-1.68.57-2.1l85.33-49.3c.74-.44,1.68-.18,2.1.56.44.74.17,1.66-.57,2.1l-85.33,49.3c-.25.13-.51.21-.78.21Z"/>
        <path class="cls-1" d="m817.13,429.28c-.55,0-1.06-.28-1.34-.76-.44-.75-.17-1.67.57-2.11l85.69-49.51c.74-.44,1.68-.17,2.1.57.43.74.17,1.66-.55,2.1l-85.7,49.51c-.25.13-.51.21-.76.21Z"/>
        <path class="cls-1" d="m816.83,407.68c-.53,0-1.04-.27-1.32-.76-.43-.75-.17-1.68.55-2.1l85.86-49.61c.72-.43,1.66-.17,2.1.57.42.72.17,1.67-.57,2.1l-85.84,49.61c-.25.13-.51.2-.77.2Z"/>
        <path class="cls-1" d="m808.48,390.74c-.53,0-1.06-.27-1.34-.76-.42-.74-.17-1.67.57-2.1l87.42-50.51c.74-.44,1.68-.17,2.1.57.44.72.19,1.66-.55,2.08l-87.44,50.53c-.23.13-.49.2-.75.2Z"/>
        <path class="cls-1" d="m788.02,380.78c-.53,0-1.04-.28-1.32-.77-.42-.74-.17-1.68.57-2.1l86.52-49.99c.74-.43,1.66-.17,2.1.56.42.74.17,1.68-.57,2.11l-86.52,49.97c-.25.15-.51.22-.78.22Z"/>
        <path class="cls-1" d="m769.45,370.03c-.53,0-1.04-.27-1.32-.76-.43-.73-.19-1.67.55-2.1l86.56-49.92c.74-.42,1.68-.17,2.1.56.44.75.17,1.68-.55,2.11l-86.56,49.92c-.25.13-.51.2-.77.2Z"/>
        <path class="cls-1" d="m750.37,359.01c-.53,0-1.06-.27-1.34-.77-.42-.73-.17-1.66.57-2.09l86.52-49.99c.72-.43,1.66-.17,2.08.57.43.74.19,1.67-.55,2.1l-86.52,49.98c-.25.15-.49.21-.76.21Z"/>
        <path class="cls-1" d="m731.48,348.09c-.53,0-1.04-.27-1.32-.77-.43-.73-.17-1.67.55-2.1l85.37-49.25c.72-.43,1.66-.17,2.1.56.42.73.17,1.68-.57,2.09l-85.37,49.27c-.23.15-.49.21-.75.21Z"/>
        <path class="cls-1" d="m712.65,337.21c-.53,0-1.04-.28-1.34-.76-.42-.74-.17-1.67.57-2.11l86.56-49.95c.74-.44,1.66-.17,2.1.57.42.74.17,1.66-.57,2.1l-86.56,49.96c-.23.13-.49.2-.75.2Z"/>
        <path class="cls-1" d="m695.76,325.25c-.53,0-1.04-.27-1.32-.77-.43-.74-.19-1.68.55-2.1l84.51-48.83c.74-.43,1.68-.17,2.1.57.44.73.17,1.67-.57,2.09l-84.51,48.83c-.23.13-.49.21-.76.21Z"/>
        <path class="cls-1" d="m675.02,315.48c-.53,0-1.04-.28-1.34-.77-.42-.73-.15-1.67.57-2.1l86.4-49.92c.74-.44,1.68-.17,2.1.56.44.73.19,1.67-.55,2.09l-86.42,49.93c-.23.15-.49.22-.76.22Z"/>
        <path class="cls-1" d="m595.6,339.59c-.53,0-1.04-.27-1.32-.77-.44-.73-.19-1.67.55-2.1l18.32-10.58c.74-.44,1.68-.19,2.12.57.42.72.17,1.66-.57,2.08l-18.32,10.6c-.25.13-.51.21-.77.21Z"/>
        <path class="cls-1" d="m656.17,304.61c-.53,0-1.06-.28-1.34-.77-.42-.74-.17-1.67.57-2.1l86.52-49.98c.74-.44,1.68-.19,2.1.56.44.73.19,1.67-.55,2.09l-86.54,49.99c-.25.15-.51.22-.76.22Z"/>
        <path class="cls-1" d="m577.3,329.01c-.53,0-1.04-.28-1.32-.75-.43-.74-.19-1.68.53-2.11l33.83-20.15c.72-.44,1.66-.21,2.1.53.43.73.21,1.67-.53,2.1l-33.83,20.15c-.25.14-.51.24-.77.24Z"/>
        <path class="cls-1" d="m637.33,293.71c-.53,0-1.04-.28-1.32-.77-.43-.73-.17-1.68.57-2.1l86.61-50.06c.74-.42,1.68-.16,2.11.57.42.74.17,1.68-.56,2.11l-86.63,50.05c-.25.14-.51.21-.77.21Z"/>
        <path class="cls-1" d="m559.37,316.87c-.53,0-1.04-.27-1.34-.77-.42-.72-.15-1.66.57-2.1l145.46-84.13c.74-.42,1.68-.17,2.1.56.44.74.17,1.68-.57,2.1l-145.44,84.14c-.25.13-.51.21-.78.21Z"/>
        <path class="cls-1" d="m539.1,306.92c-.53,0-1.04-.27-1.32-.76-.42-.75-.17-1.68.57-2.1l146.89-84.87c.74-.43,1.68-.18,2.1.57.43.73.19,1.67-.55,2.09l-146.91,84.88c-.25.13-.51.2-.77.2Z"/>
        <path class="cls-1" d="m526.88,292.23c-.55,0-1.06-.27-1.34-.77-.42-.73-.17-1.67.57-2.09l141.89-81.99c.74-.42,1.68-.17,2.11.57.42.73.17,1.67-.57,2.09l-141.9,81.99c-.25.13-.51.2-.76.2Z"/>
        <path class="cls-1" d="m561.28,584.73c-.53,0-1.04-.28-1.32-.76-.44-.75-.19-1.67.55-2.11l24.14-13.94c.74-.44,1.68-.18,2.1.57.43.73.19,1.66-.55,2.09l-24.14,13.95c-.25.14-.51.21-.77.21Z"/>
        <path class="cls-1" d="m542.69,573.7c-.53,0-1.04-.26-1.34-.76-.42-.73-.17-1.67.57-2.09l42.73-24.69c.74-.44,1.68-.17,2.1.56.43.73.19,1.67-.55,2.09l-42.75,24.69c-.23.15-.49.21-.76.21Z"/>
        <path class="cls-1" d="m526.41,561.35c-.53,0-1.04-.27-1.32-.77-.44-.73-.19-1.67.55-2.1l56.65-32.72c.74-.44,1.66-.18,2.1.56.42.74.17,1.67-.57,2.1l-56.63,32.72c-.25.15-.51.21-.78.21Z"/>
        <path class="cls-1" d="m526.9,539.6c-.53,0-1.04-.28-1.32-.76-.44-.74-.19-1.68.55-2.11l35.97-21.07c.74-.42,1.66-.18,2.1.56.44.72.19,1.66-.55,2.1l-35.97,21.07c-.25.13-.51.22-.78.22Z"/>
        <path class="cls-1" d="m526.63,517.69c-.55,0-1.06-.28-1.34-.75-.42-.75-.17-1.68.57-2.12l18.74-10.82c.74-.43,1.66-.16,2.09.57.44.74.17,1.67-.56,2.1l-18.74,10.83c-.25.13-.49.2-.76.2Z"/>
        <path class="cls-1" d="m526.88,270.45c-.53,0-1.06-.27-1.34-.76-.42-.75-.17-1.68.57-2.11l121.45-70.15c.72-.44,1.66-.19,2.1.55.42.74.17,1.68-.57,2.1l-121.45,70.17c-.25.13-.51.2-.76.2Z"/>
        <path class="cls-1" d="m526.88,248.69c-.53,0-1.06-.27-1.34-.77-.42-.74-.17-1.68.57-2.11l102.59-59.27c.72-.43,1.66-.17,2.1.56.42.74.17,1.68-.57,2.1l-102.59,59.28c-.25.13-.51.21-.76.21Z"/>
        <path class="cls-1" d="m526.28,227.69c-.55,0-1.06-.27-1.34-.76-.41-.73-.17-1.67.57-2.09l84.86-48.86c.74-.43,1.66-.17,2.1.56.41.75.17,1.68-.57,2.11l-84.86,48.86c-.24.13-.51.19-.75.19Z"/>
        <path class="cls-1" d="m526.88,205.16c-.53,0-1.06-.27-1.34-.78-.42-.73-.17-1.67.57-2.09l64.68-37.37c.74-.44,1.68-.18,2.1.56.44.74.19,1.66-.55,2.1l-64.7,37.37c-.25.14-.51.21-.76.21Z"/>
        <path class="cls-1" d="m527.73,182.9c-.55,0-1.06-.28-1.34-.77-.41-.74-.17-1.66.57-2.1l45.41-26.24c.74-.42,1.68-.17,2.1.57.44.73.19,1.67-.55,2.09l-45.43,26.25c-.25.14-.51.21-.75.21Z"/>
        <path class="cls-1" d="m526.88,161.63c-.55,0-1.06-.28-1.34-.77-.42-.74-.17-1.67.57-2.1l27.18-15.7c.72-.43,1.66-.18,2.1.55.42.74.17,1.68-.57,2.1l-27.18,15.72c-.25.14-.51.21-.76.21Z"/>
      </g>
      <path class="cls-1" d="m903.55,350.19c-.79,0-1.57-.21-2.29-.62l-376.54-217.24c-1.42-.8-2.3-2.31-2.3-3.95s.85-3.16,2.27-3.99l83.76-49.44c1.44-.85,3.21-.86,4.65-.03l376.52,217.72c1.44.82,2.31,2.32,2.31,3.97s-.85,3.15-2.27,4l-83.76,48.96c-.72.42-1.53.63-2.34.63Zm-367.4-221.89l367.4,211.96,74.6-43.63-367.34-212.4-74.66,44.07Z"/>
      <path class="cls-1" d="m903.57,785.14c-.79,0-1.59-.21-2.31-.62-1.44-.82-2.3-2.33-2.3-3.99l.13-434.7c0-1.64.87-3.15,2.27-3.98l83.63-49.2c1.42-.84,3.19-.85,4.61-.03,1.44.82,2.33,2.33,2.33,3.99l.28,434.94c0,1.64-.87,3.16-2.29,3.98l-84.04,48.96c-.7.41-1.51.63-2.3.63Zm4.74-436.69l-.13,424.05,74.83-43.58-.28-424.26-74.41,43.79Z"/>
      <g>
        <path class="cls-1" d="m698.03,401.63c-2.55,0-4.61-2.06-4.61-4.59v-68.81c0-2.55,2.06-4.61,4.61-4.61s4.61,2.06,4.61,4.61v68.81c0,2.53-2.08,4.59-4.61,4.59Z"/>
        <path class="cls-1" d="m816.53,537.74c-.78,0-1.57-.2-2.29-.61l-59.69-34.42c-2.21-1.27-2.97-4.07-1.68-6.27,1.27-2.21,4.08-2.98,6.27-1.7l59.69,34.42c2.21,1.27,2.97,4.08,1.7,6.28-.85,1.48-2.4,2.3-4,2.3Z"/>
      </g>
    </g>
  </g>
  <path class="cls-1" d="m585.08,633.57c-.79,0-1.59-.2-2.3-.61l-86.01-49.65c-1.42-.82-2.29-2.33-2.29-3.98v-99.32c0-1.64.87-3.15,2.29-3.99l86.01-49.64c1.44-.83,3.19-.83,4.61,0l86.01,49.64c1.44.83,2.3,2.34,2.3,3.99v99.32c0,1.65-.87,3.16-2.3,3.98l-86.01,49.65c-.7.42-1.51.61-2.31.61Zm-81.4-56.91l81.4,47,81.42-47v-94l-81.42-47-81.4,47v94Z"/>
  <path class="cls-1" d="m585.08,673.89c-.26,0-.53-.07-.75-.21l-123.58-71.35c-.49-.27-.77-.77-.77-1.32v-142.7c0-.55.28-1.07.77-1.33l123.58-71.36c.47-.27,1.06-.27,1.53,0l123.58,71.36c.47.27.76.79.76,1.33v142.7c0,.55-.28,1.06-.76,1.32l-123.58,71.35c-.25.14-.51.21-.78.21Zm-122.05-73.77l122.05,70.46,122.05-70.46v-140.92l-122.05-70.47-122.05,70.47v140.92Z"/>
  <path class="cls-1" d="m585.08,750.15c-.26,0-.53-.07-.75-.21l-189.64-109.48c-.47-.27-.76-.77-.76-1.33v-218.96c0-.55.28-1.06.76-1.32l189.64-109.49c.47-.27,1.06-.27,1.53,0l189.62,109.49c.47.26.77.77.77,1.32v218.96c0,.56-.3,1.06-.77,1.33l-189.62,109.48c-.25.14-.51.21-.78.21Zm-188.09-111.9l188.09,108.59,188.09-108.59v-217.19l-188.09-108.59-188.09,108.59v217.19Z"/>
  <path class="cls-1" d="m585.08,761.85c-.26,0-.53-.07-.75-.2l-199.77-115.33c-.47-.27-.77-.77-.77-1.32v-230.67c0-.54.3-1.04.77-1.32l199.77-115.33c.47-.28,1.06-.28,1.53,0l199.75,115.33c.49.28.78.78.78,1.32v230.67c0,.55-.28,1.05-.78,1.32l-199.75,115.33c-.25.13-.51.2-.78.2Zm-198.22-117.74l198.22,114.44,198.24-114.44v-228.89l-198.24-114.42-198.22,114.42v228.89Z"/>
  <path class="cls-1" d="m585.08,947.8c-.79,0-1.59-.2-2.3-.61l-358.12-206.76c-1.42-.82-2.3-2.35-2.3-4v-413.53c0-1.64.89-3.16,2.3-3.98l358.12-206.76c1.44-.83,3.19-.83,4.61,0l358.14,206.76c1.42.82,2.31,2.34,2.31,3.98v413.53c0,1.64-.89,3.17-2.31,4l-358.14,206.76c-.7.41-1.51.61-2.31.61Zm-353.51-214.04l353.51,204.12,353.53-204.12v-408.2l-353.53-204.11-353.51,204.11v408.2Z"/>
  <path class="cls-1" d="m585.08,966.81c-.26,0-.53-.07-.75-.21l-377.26-217.81c-.47-.27-.77-.77-.77-1.32v-435.63c0-.55.3-1.06.77-1.32l377.26-217.81c.47-.27,1.06-.27,1.53,0l377.26,217.81c.47.26.77.77.77,1.32v435.63c0,.55-.3,1.06-.77,1.32l-377.26,217.81c-.25.14-.51.21-.78.21Zm-375.71-220.22l375.71,216.92,375.73-216.92v-433.85l-375.73-216.91-375.71,216.91v433.85Z"/>
  <path class="cls-1" d="m585.08,981.97c-.26,0-.53-.07-.75-.22l-390.39-225.38c-.47-.27-.77-.77-.77-1.32v-450.78c0-.54.3-1.04.77-1.32l390.39-225.38c.47-.27,1.06-.27,1.53,0l390.39,225.38c.47.28.77.78.77,1.32v450.78c0,.55-.3,1.06-.77,1.32l-390.39,225.38c-.25.15-.51.22-.78.22Zm-388.84-227.81l388.84,224.5,388.86-224.5v-449l-388.86-224.49-388.84,224.49v449Z"/>
  <path class="cls-1" d="m585.08,1029.16c-.26,0-.53-.08-.75-.21l-431.27-248.97c-.47-.28-.75-.79-.75-1.34v-497.96c0-.56.28-1.07.75-1.34L584.33,30.38c.47-.28,1.06-.28,1.53,0l431.27,248.97c.47.27.75.79.75,1.34v497.96c0,.55-.28,1.06-.75,1.34l-431.27,248.97c-.25.13-.51.21-.78.21Zm-429.72-251.4l429.72,248.09,429.74-248.09v-496.2L585.08,33.47l-429.72,248.09v496.2Z"/>
  <path class="cls-1" d="m642.41,78.9c0,17.45-14.17,31.6-31.62,31.6s-31.6-14.16-31.6-31.6,14.15-31.62,31.6-31.62,31.62,14.16,31.62,31.62Z"/>
  <path class="cls-1" d="m471.95,613.45c0,17.46-14.17,31.62-31.62,31.62s-31.6-14.17-31.6-31.62,14.15-31.61,31.6-31.61,31.62,14.16,31.62,31.61Z"/>
  <path class="cls-1" d="m698.92,477.59c0,17.46-14.15,31.62-31.6,31.62s-31.62-14.16-31.62-31.62,14.17-31.62,31.62-31.62,31.6,14.16,31.6,31.62Z"/>
  <path class="cls-1" d="m471.95,1048.4c0,17.45-14.17,31.6-31.62,31.6s-31.6-14.15-31.6-31.6,14.15-31.62,31.6-31.62,31.62,14.16,31.62,31.62Z"/>
  <path class="cls-1" d="m1004.39,296.62c0,9.43-7.65,17.06-17.06,17.06s-17.06-7.63-17.06-17.06,7.63-17.06,17.06-17.06,17.06,7.65,17.06,17.06Z"/>
  <path class="cls-1" d="m1033.41,778.66c0,9.41-7.63,17.05-17.06,17.05s-17.06-7.64-17.06-17.05,7.63-17.07,17.06-17.07,17.06,7.64,17.06,17.07Z"/>
  <path class="cls-1" d="m80.99,395.98c0,9.42-7.63,17.06-17.06,17.06s-17.06-7.64-17.06-17.06,7.63-17.06,17.06-17.06,17.06,7.63,17.06,17.06Z"/>
  <path class="cls-1" d="m80.71,830.93c0,9.41-7.63,17.05-17.06,17.05s-17.06-7.64-17.06-17.05,7.63-17.07,17.06-17.07,17.06,7.64,17.06,17.07Z"/>
  <path class="cls-1" d="m167.62,780.74c0,9.41-7.63,17.06-17.06,17.06s-17.06-7.65-17.06-17.06,7.65-17.06,17.06-17.06,17.06,7.63,17.06,17.06Z"/>
  <path class="cls-1" d="m370.54,897.71c0,9.43-7.63,17.07-17.06,17.07s-17.06-7.64-17.06-17.07,7.63-17.06,17.06-17.06,17.06,7.64,17.06,17.06Z"/>
  <path class="cls-1" d="m689.2,914.18c0,9.42-7.63,17.06-17.06,17.06s-17.06-7.64-17.06-17.06,7.63-17.05,17.06-17.05,17.06,7.63,17.06,17.05Z"/>
  <path class="cls-1" d="m602.14,1027.62c0,9.41-7.63,17.07-17.04,17.07s-17.08-7.66-17.08-17.07,7.65-17.06,17.08-17.06,17.04,7.64,17.04,17.06Z"/>
  <path class="cls-1" d="m170.89,280.68c0,9.41-7.63,17.05-17.06,17.05s-17.06-7.64-17.06-17.05,7.65-17.07,17.06-17.07,17.06,7.64,17.06,17.07Z"/>
  <path class="cls-1" d="m244.02,322.89c0,9.42-7.63,17.06-17.06,17.06s-17.06-7.64-17.06-17.06,7.63-17.06,17.06-17.06,17.06,7.64,17.06,17.06Z"/>
  <path class="cls-1" d="m602.22,763.74c0,9.43-7.63,17.06-17.06,17.06s-17.06-7.63-17.06-17.06,7.63-17.06,17.06-17.06,17.06,7.65,17.06,17.06Z"/>
  <path class="cls-1" d="m920.61,345.6c0,9.41-7.63,17.04-17.04,17.04s-17.08-7.63-17.08-17.04,7.65-17.08,17.08-17.08,17.04,7.65,17.04,17.08Z"/>
  <path class="cls-1" d="m610.79,157.79c-43.5,0-78.89-35.4-78.89-78.89S567.29,0,610.79,0s78.89,35.4,78.89,78.9-35.4,78.89-78.89,78.89Zm0-154.72c-41.8,0-75.83,34.01-75.83,75.84s34.02,75.82,75.83,75.82,75.81-34.01,75.81-75.82S652.6,3.07,610.79,3.07Z"/>
  <path class="cls-1" d="m1016.35,814.53c-19.78,0-35.89-16.1-35.89-35.89s16.11-35.88,35.89-35.88,35.87,16.1,35.87,35.88-16.09,35.89-35.87,35.89Zm0-68.7c-18.1,0-32.81,14.71-32.81,32.81s14.71,32.81,32.81,32.81,32.81-14.71,32.81-32.81-14.71-32.81-32.81-32.81Z"/>
  <path class="cls-1" d="m585.1,1063.51c-19.8,0-35.89-16.1-35.89-35.88s16.1-35.88,35.89-35.88,35.87,16.09,35.87,35.88-16.09,35.88-35.87,35.88Zm0-68.69c-18.1,0-32.83,14.72-32.83,32.81s14.74,32.81,32.83,32.81,32.79-14.72,32.79-32.81-14.71-32.81-32.79-32.81Z"/>
  <path class="cls-1" d="m63.65,866.8c-19.78,0-35.87-16.1-35.87-35.87s16.09-35.89,35.87-35.89,35.87,16.09,35.87,35.89-16.08,35.87-35.87,35.87Zm0-68.69c-18.1,0-32.81,14.71-32.81,32.81s14.71,32.8,32.81,32.8,32.81-14.72,32.81-32.8-14.72-32.81-32.81-32.81Z"/>
  <path class="cls-1" d="m153.83,316.56c-19.78,0-35.89-16.1-35.89-35.89s16.11-35.88,35.89-35.88,35.87,16.11,35.87,35.88-16.1,35.89-35.87,35.89Zm0-68.7c-18.1,0-32.81,14.72-32.81,32.8s14.71,32.82,32.81,32.82,32.81-14.72,32.81-32.82-14.74-32.8-32.81-32.8Z"/>
</svg>